# xmcd
#
# Track frame offsets: 
#        150
#        24049
#        45250
#        70907
#        87318
#        111480
#        139086
#        166535
#        184261
#        206549
#        241201
#        264444
#        286751
#        316264
#        329567
#        348135
#
# Disc length: 4814 seconds
#
# Revision: 2
# Processed by: cddbd v1.5.2PL0 Copyright (c) Steve Scherf et al.
# Submitted via: ExactAudioCopy v0.95a5
#
DISCID=d612cc10
DTITLE=Various Artist - Good Whiskey Blues   CD-5 
DYEAR=2005
DGENRE=Blues
TTITLE0=Tangled Up in Your Love - DAVE DUNKAN
TTITLE1=Root Man - BUDDY RAY
TTITLE2=Let's Straighten It Out - SCOTT HOLT
TTITLE3=Sun Is Shining - PERRY WELSH
TTITLE4=Don't Want to Touch That Woman - MICHAEL BARCLAY
TTITLE5=The Dark Side - RED BEANS and RICE
TTITLE6=Parchman Farm - CHUCK DAY BAND
TTITLE7=Sweet Disposition - CHRIS MICHIE
TTITLE8=She's on Her Way Up - RICH HARPER
TTITLE9=The Trill Has Gone - STAN WEBB's CHICKEN SCHACK
TTITLE10=Haunted By My Past - RED HOT BLUES
TTITLE11=Where My Baby Might Me - KING JOHNSON
TTITLE12=Blues Got Me Down - CHRIS HICKS
TTITLE13=The Last Time - DOUG "Little Brother" JONES
TTITLE14=Chevrolet - BO WILSON BAND
TTITLE15=Don't You Lie to Me - The DUSTERS
EXTD=
EXTT0=
EXTT1=
EXTT2=
EXTT3=
EXTT4=
EXTT5=
EXTT6=
EXTT7=
EXTT8=
EXTT9=
EXTT10=
EXTT11=
EXTT12=
EXTT13=
EXTT14=
EXTT15=
PLAYORDER=
